<svg xmlns="http://www.w3.org/2000/svg" width="5939" height="1024">
<path  d="M1024 511.997c0 141.386-57.308 269.386-149.962 362.04S653.384 1023.997 512 1023.997c-141.384 0-269.385-57.306-362.039-149.96S0 653.383 0 511.997c0-141.384 57.308-269.384 149.961-362.038S370.616-.002 512-.002s269.384 57.308 362.038 149.961S1024 370.613 1024 511.997z"/>
<path  d="M716.398 427.622c-.96-21.765-4.48-36.726-9.521-49.692-5.202-13.763-13.202-26.081-23.685-36.324-10.243-10.404-22.646-18.486-36.247-23.606-13.041-5.041-27.924-8.561-49.69-9.521-21.926-1.042-28.887-1.283-84.498-1.283s-62.572.241-84.416 1.201c-21.763.96-36.726 4.483-49.687 9.521-13.765 5.202-26.086 13.202-36.329 23.688-10.401 10.243-18.483 22.643-23.606 36.247-5.041 13.043-8.561 27.924-9.521 49.687-1.039 21.926-1.28 28.887-1.28 84.498s.241 62.572 1.201 84.416c.957 21.765 4.48 36.726 9.523 49.692 5.199 13.763 13.281 26.084 23.683 36.326 10.243 10.401 22.646 18.483 36.247 23.603 13.043 5.041 27.924 8.561 49.692 9.521 21.842.963 28.805 1.201 84.416 1.201s62.572-.238 84.416-1.201c21.763-.96 36.726-4.48 49.687-9.521a104.775 104.775 0 0 0 59.935-59.93c5.038-13.043 8.561-27.927 9.521-49.692.96-21.844 1.201-28.805 1.201-84.416s-.082-62.572-1.042-84.416zm-36.884 167.232c-.883 20.004-4.242 30.807-7.043 38.008a67.96 67.96 0 0 1-38.889 38.889c-7.201 2.801-18.081 6.159-38.008 7.037-21.604.963-28.083 1.201-82.734 1.201s-61.212-.238-82.737-1.201c-20.004-.878-30.807-4.237-38.008-7.037-8.881-3.282-16.963-8.484-23.524-15.286a63.656 63.656 0 0 1-15.283-23.524c-2.801-7.201-6.162-18.084-7.04-38.006-.963-21.604-1.201-28.088-1.201-82.739s.238-61.212 1.201-82.734c.878-20.004 4.239-30.807 7.04-38.008 3.282-8.883 8.481-16.963 15.365-23.526a63.623 63.623 0 0 1 23.524-15.281c7.201-2.801 18.084-6.159 38.006-7.043 21.604-.96 28.088-1.201 82.737-1.201 54.73 0 61.21.241 82.737 1.201 20.004.883 30.807 4.242 38.008 7.043 8.878 3.279 16.963 8.481 23.524 15.281a63.701 63.701 0 0 1 15.283 23.526c2.801 7.201 6.159 18.081 7.043 38.008.96 21.604 1.201 28.083 1.201 82.734s-.241 61.053-1.201 82.657z"/>
<path  d="M512.76 406.817c-58.089 0-105.221 47.127-105.221 105.221 0 58.092 47.132 105.221 105.221 105.221 58.092 0 105.219-47.13 105.219-105.221 0-58.094-47.127-105.221-105.219-105.221zm0 173.474c-37.686 0-68.255-30.564-68.255-68.252s30.569-68.255 68.255-68.255c37.688 0 68.252 30.566 68.252 68.255s-30.564 68.252-68.252 68.252zM646.707 402.657c0 13.565-10.998 24.566-24.566 24.566-13.565 0-24.566-11-24.566-24.566 0-13.568 11-24.563 24.566-24.563 13.568 0 24.566 10.995 24.566 24.563z"/>
<path  d="M2662.4 511.997c0 141.386-57.318 269.386-149.962 362.04-92.654 92.654-220.654 149.96-362.038 149.96s-269.384-57.306-362.038-149.96c-92.654-92.654-149.962-220.654-149.962-362.04 0-141.384 57.308-269.384 149.962-362.038S2009.016-.002 2150.4-.002c141.384 0 269.384 57.308 362.038 149.961 92.644 92.654 149.962 220.654 149.962 362.038z"/>
<path  d="M2355.2 384.996c-15.232 6.682-31.462 11.11-48.384 13.261 17.408-10.394 30.694-26.726 36.941-46.413-16.23 9.677-34.15 16.512-53.248 20.326-15.411-16.41-37.376-26.573-61.338-26.573-46.49 0-83.917 37.734-83.917 83.994 0 6.656.563 13.056 1.946 19.149-69.811-3.405-131.584-36.864-173.082-87.834-7.245 12.57-11.494 26.957-11.494 42.445 0 29.082 14.976 54.861 37.299 69.786-13.491-.256-26.726-4.173-37.939-10.342v.922c0 40.806 29.107 74.701 67.277 82.509-6.835 1.869-14.285 2.765-22.016 2.765-5.376 0-10.803-.307-15.898-1.434 10.88 33.254 41.754 57.702 78.464 58.496-28.57 22.349-64.845 35.814-104.115 35.814-6.886 0-13.491-.307-20.096-1.152 37.197 23.987 81.28 37.683 128.819 37.683 154.522 0 239.002-128 239.002-238.95 0-3.712-.128-7.296-.307-10.854 16.666-11.827 30.669-26.598 42.086-43.597z"/>
<path  d="M4300.8 511.997c0 141.386-57.318 269.386-149.965 362.04s-220.646 149.96-362.035 149.96c-141.389 0-269.389-57.306-362.035-149.96S3276.8 653.383 3276.8 511.997c0-141.384 57.318-269.384 149.965-362.038S3647.411-.002 3788.8-.002c141.389 0 269.389 57.308 362.035 149.961S4300.8 370.613 4300.8 511.997z"/>
<path  d="M3857.024 375.209h37.376v-65.126c-6.451-.888-28.621-2.885-54.477-2.885-53.914 0-90.829 33.912-90.829 96.241v57.359H3689.6v72.806h59.494v183.194h72.934V533.622h57.088l9.062-72.806h-66.176v-50.158c.026-21.043 5.683-35.448 35.021-35.448z"/>
<path  d="M5939.2 511.997c0 141.386-57.318 269.386-149.965 362.04s-220.646 149.96-362.035 149.96c-141.389 0-269.389-57.306-362.035-149.96S4915.2 653.383 4915.2 511.997c0-141.384 57.318-269.384 149.965-362.038S5285.811-.002 5427.2-.002c141.389 0 269.389 57.308 362.035 149.961S5939.2 370.613 5939.2 511.997z"/>
<path  d="M5631.898 716.8v-.018h.102V566.561c0-73.49-15.821-130.099-101.734-130.099-41.293 0-69.018 22.664-80.333 44.152h-1.203v-37.292h-81.459v273.459h84.838V581.375c0-35.653 6.758-70.129 50.893-70.129 43.52 0 44.16 40.689 44.16 72.415v133.138h84.736zM5229.158 443.338h84.915v273.459h-84.915V443.338zM5271.578 307.197c-27.136 0-49.178 22.034-49.178 49.188 0 27.151 22.042 49.646 49.178 49.646 27.162 0 49.203-22.495 49.203-49.646-.026-27.154-22.067-49.188-49.203-49.188z"/></svg>